<?xml version="1.0" standalone="no"?>
<!DOCTYPE svg PUBLIC "-//W3C//DTD SVG 20010904//EN"
 "http://www.w3.org/TR/2001/REC-SVG-20010904/DTD/svg10.dtd">
<svg version="1.0" xmlns="http://www.w3.org/2000/svg"
 width="600.000000pt" height="480.000000pt" viewBox="0 0 600.000000 480.000000"
 preserveAspectRatio="xMidYMid meet">

<g transform="translate(0.000000,480.000000) scale(0.100000,-0.100000)"
fill="#000000" stroke="none">
<path d="M0 2400 l0 -2400 3000 0 3000 0 0 2400 0 2400 -3000 0 -3000 0 0
-2400z m3390 1244 c224 -56 393 -212 445 -409 32 -126 12 -308 -51 -444 -31
-69 -74 -144 -80 -139 -2 2 6 29 18 59 18 44 22 75 22 164 1 109 0 113 -37
187 -62 127 -174 208 -333 244 -102 22 -287 15 -399 -16 -403 -110 -707 -467
-664 -778 30 -214 213 -358 482 -381 l92 -7 -79 -8 c-190 -20 -382 33 -504
140 -36 32 -63 68 -89 120 -32 66 -37 87 -41 162 -5 101 13 189 57 286 125
276 403 503 717 586 99 26 114 26 114 -1 0 -16 4 -19 17 -15 9 4 77 25 150 48
73 23 133 45 133 48 0 3 -64 30 -141 60 -78 30 -145 56 -150 58 -4 2 -9 -9
-11 -24 -3 -24 -10 -28 -73 -44 -401 -102 -731 -390 -851 -744 -33 -95 -47
-217 -35 -302 6 -37 8 -70 6 -72 -5 -6 -32 60 -51 126 -12 42 -15 84 -12 171
5 139 36 240 114 370 59 101 199 253 305 331 148 110 361 202 529 230 41 6 82
13 90 15 35 9 250 -6 310 -21z m570 -54 c0 -25 -4 -30 -25 -30 -21 0 -25 5
-25 30 0 25 4 30 25 30 21 0 25 -5 25 -30z m-110 -65 l0 -45 -45 0 -45 0 0 45
0 45 45 0 45 0 0 -45z m100 -110 l0 -45 -40 0 -40 0 0 45 0 45 40 0 40 0 0
-45z m-560 -165 c0 -27 -3 -30 -30 -30 -27 0 -30 3 -30 30 0 27 3 30 30 30 27
0 30 -3 30 -30z m130 -55 c0 -33 -2 -35 -35 -35 -33 0 -35 2 -35 35 0 33 2 35
35 35 33 0 35 -2 35 -35z m-140 -65 l0 -40 -45 0 -45 0 0 40 0 40 45 0 45 0 0
-40z m-220 -151 l0 -161 -22 14 c-12 8 -26 29 -30 46 -14 53 -79 80 -119 49
-25 -19 -41 -57 -35 -81 4 -17 -3 -30 -24 -51 l-30 -29 0 187 0 187 130 0 130
0 0 -161z m370 -57 l0 -108 -49 -48 c-28 -27 -54 -45 -60 -41 -6 3 -27 1 -45
-5 -29 -9 -39 -8 -70 11 l-36 21 0 139 0 139 130 0 130 0 0 -108z m-479 -76
c-16 -19 -41 -10 -41 14 0 24 21 31 39 14 11 -10 12 -16 2 -28z m-261 -119 c0
-73 0 -73 -42 -114 -54 -51 -123 -64 -175 -31 l-33 20 0 99 0 99 125 0 125 0
0 -73z m455 -22 c54 -32 71 -48 77 -71 25 -97 158 -84 158 16 0 26 7 43 25 60
l25 23 0 -125 0 -126 -57 -53 c-52 -47 -182 -139 -197 -139 -3 0 -6 79 -6 175
l0 175 -41 25 c-74 48 -69 63 -69 -194 l0 -232 -32 -14 c-36 -15 -175 -45
-208 -45 -20 0 -20 5 -20 222 l0 222 -55 -54 -55 -54 0 -168 c0 -160 -1 -168
-20 -168 -37 0 -125 23 -177 46 l-53 23 0 140 c0 78 3 141 8 141 17 -1 30 -17
37 -47 8 -38 47 -73 81 -73 38 0 77 41 78 84 2 33 14 49 126 161 115 115 128
125 162 125 20 0 40 5 43 10 4 6 25 -1 53 -17 26 -15 78 -46 117 -68z m180
-60 c0 -23 -34 -33 -45 -14 -13 20 1 40 24 37 13 -2 21 -10 21 -23z m-737
-148 c4 -20 -25 -34 -40 -19 -15 15 -1 44 19 40 10 -2 19 -11 21 -21z m-874
-651 c39 -16 66 -51 66 -83 0 -20 -5 -23 -38 -23 -29 0 -39 5 -47 23 -8 18
-19 23 -62 25 -49 3 -53 1 -59 -22 -9 -38 2 -46 70 -46 112 0 146 -24 146
-105 0 -75 -80 -114 -196 -95 -65 11 -91 30 -100 78 -6 32 -6 32 34 32 32 0
42 -4 47 -20 11 -35 108 -41 128 -9 21 34 2 49 -63 49 -69 0 -123 19 -139 48
-18 33 -13 87 10 116 34 43 137 60 203 32z m782 -11 c49 -32 65 -72 62 -157
-2 -60 -8 -83 -25 -106 -19 -26 -20 -31 -6 -44 13 -14 12 -18 -12 -37 l-27
-21 -19 24 c-16 20 -28 24 -78 24 -112 0 -170 55 -171 161 0 94 33 150 100
170 47 14 145 7 176 -14z m785 15 c19 -5 48 -24 65 -41 27 -28 29 -37 32 -112
2 -68 0 -87 -17 -114 -28 -45 -73 -65 -146 -65 -111 0 -161 42 -172 147 -6 58
14 132 42 155 42 35 130 48 196 30z m-1141 -30 l0 -29 -92 -3 -93 -3 -3 -32
-3 -33 70 0 c75 0 86 -7 77 -46 -6 -23 -11 -24 -76 -24 l-70 0 0 -35 0 -35 95
0 95 0 0 -30 0 -30 -135 0 -135 0 0 165 0 165 135 0 135 0 0 -30z m582 -86 c3
-108 5 -117 27 -135 31 -25 85 -25 111 1 18 18 20 33 20 135 l0 115 40 0 40 0
0 -117 c0 -128 -12 -164 -64 -198 -36 -24 -146 -23 -188 2 -51 29 -62 63 -66
196 l-4 117 40 0 40 0 4 -116z m818 -49 l0 -165 -40 0 -40 0 0 165 0 165 40 0
40 0 0 -165z m162 33 l3 -133 93 -3 92 -3 0 -29 0 -30 -135 0 -135 0 0 165 0
165 40 0 39 0 3 -132z m540 -15 c31 -82 59 -156 63 -165 6 -15 1 -18 -33 -18
-35 0 -41 4 -52 30 -12 29 -14 30 -79 30 -65 0 -67 -1 -78 -30 -10 -26 -16
-30 -51 -30 l-40 0 54 143 c78 205 67 187 117 187 l43 0 56 -147z m-2152 -399
l45 -67 3 67 c2 51 6 66 18 66 12 0 14 -15 12 -87 -4 -115 -19 -120 -78 -29
-24 37 -47 66 -51 66 -5 0 -9 -29 -9 -65 0 -37 -4 -65 -10 -65 -6 0 -10 37
-10 90 0 79 2 90 18 90 10 0 35 -27 62 -66z m330 51 c0 -11 -12 -15 -50 -15
-43 0 -50 -3 -50 -19 0 -16 8 -20 37 -23 52 -4 56 -28 4 -28 -37 0 -41 -2 -41
-25 0 -23 3 -25 50 -25 38 0 50 -4 50 -15 0 -12 -14 -15 -65 -15 l-65 0 0 90
0 90 65 0 c51 0 65 -3 65 -15z m175 -45 c10 -34 22 -63 26 -65 4 -3 15 24 24
60 25 89 45 89 76 -2 l22 -68 22 65 c13 40 28 66 38 68 13 3 11 -12 -15 -88
-37 -110 -52 -114 -83 -21 -12 36 -24 61 -27 55 -3 -5 -13 -35 -22 -67 -23
-80 -41 -73 -77 28 -33 93 -33 95 -16 95 8 0 22 -26 32 -60z m635 45 c0 -11
-12 -15 -50 -15 -43 0 -50 -3 -50 -20 0 -16 7 -20 35 -20 24 0 35 -5 35 -15 0
-10 -11 -15 -35 -15 -31 0 -35 -3 -35 -25 0 -23 3 -25 50 -25 38 0 50 -4 50
-15 0 -12 -14 -15 -65 -15 l-65 0 0 90 0 90 65 0 c51 0 65 -3 65 -15z m248 3
c16 -16 15 -73 -2 -90 -12 -12 -12 -18 0 -39 17 -31 17 -39 1 -39 -7 0 -21 16
-30 36 -13 27 -22 35 -40 32 -17 -2 -23 -11 -25 -36 -2 -20 -8 -32 -15 -29 -8
2 -13 35 -15 90 l-3 87 59 0 c32 0 63 -5 70 -12z m276 -65 c16 -43 31 -84 34
-90 2 -7 -3 -13 -11 -13 -9 0 -19 9 -22 20 -5 16 -15 20 -50 20 -34 0 -44 -4
-48 -20 -3 -11 -12 -20 -21 -20 -15 0 -14 6 43 153 20 50 44 34 75 -50z"/>
<path d="M3540 3465 c0 -33 2 -35 35 -35 33 0 35 2 35 35 0 33 -2 35 -35 35
-33 0 -35 -2 -35 -35z"/>
<path d="M3630 3340 l0 -60 55 0 55 0 0 60 0 60 -55 0 -55 0 0 -60z"/>
<path d="M3450 3350 c0 -39 1 -40 35 -40 34 0 35 1 35 40 0 39 -1 40 -35 40
-34 0 -35 -1 -35 -40z"/>
<path d="M2431 1773 c-27 -23 -39 -100 -22 -141 7 -16 24 -34 37 -41 37 -16
46 -14 35 8 -8 14 -6 22 8 35 24 22 37 20 56 -6 13 -20 17 -21 25 -8 5 8 10
39 10 68 0 43 -5 58 -25 77 -30 30 -92 34 -124 8z"/>
<path d="M3250 1770 c-64 -64 -21 -190 66 -190 55 0 84 36 84 103 0 76 -25
107 -86 107 -30 0 -50 -6 -64 -20z"/>
<path d="M4231 1727 c-6 -15 -14 -39 -17 -52 -6 -23 -3 -25 31 -25 40 0 40 2
10 74 l-13 31 -11 -28z"/>
<path d="M3480 1310 c0 -27 3 -30 34 -30 37 0 62 21 52 45 -3 10 -19 15 -46
15 -38 0 -40 -2 -40 -30z"/>
<path d="M3791 1299 c-6 -17 -11 -34 -11 -35 0 -2 13 -4 30 -4 28 0 29 1 18
28 -19 44 -25 45 -37 11z"/>
</g>
</svg>
